<svg xmlns="http://www.w3.org/2000/svg" xmlns:xlink="http://www.w3.org/1999/xlink" version="1.1" width="256" height="256" viewBox="0 0 256 256" xml:space="preserve">

<defs>
</defs>
<g style="stroke: none; stroke-width: 0; stroke-dasharray: none; stroke-linecap: butt; stroke-linejoin: miter; stroke-miterlimit: 10; fill: none; fill-rule: nonzero; opacity: 1;" transform="translate(1.4065934065934016 1.4065934065934016) scale(2.81 2.81)" >
	<path d="M 45 58.652 c 9.125 -4.191 18.25 -10.846 18.25 -28.717 v -13.09 C 57.167 16.547 51.083 13.557 45 7.877 c -6.083 5.681 -12.167 8.67 -18.25 8.968 v 13.09 C 26.75 47.806 35.875 54.461 45 58.652 L 45 58.652 z" style="stroke: none; stroke-width: 1; stroke-dasharray: none; stroke-linecap: butt; stroke-linejoin: miter; stroke-miterlimit: 10; fill: rgb(46,120,217); fill-rule: nonzero; opacity: 1;" transform=" matrix(1 0 0 1 0 0) " stroke-linecap="round" />
	<path d="M 45.546 44.479 h -1.093 c -3.564 0 -6.454 -2.889 -6.454 -6.454 v -5.708 h 14 v 5.708 C 52 41.589 49.111 44.479 45.546 44.479 z" style="stroke: none; stroke-width: 1; stroke-dasharray: none; stroke-linecap: butt; stroke-linejoin: miter; stroke-miterlimit: 10; fill: rgb(255,255,255); fill-rule: nonzero; opacity: 1;" transform=" matrix(1 0 0 1 0 0) " stroke-linecap="round" />
	<path d="M 82.796 82.123 H 7.204 C 3.225 82.123 0 78.898 0 74.919 v -4.313 h 90 v 4.313 C 90 78.898 86.775 82.123 82.796 82.123 z" style="stroke: none; stroke-width: 1; stroke-dasharray: none; stroke-linecap: butt; stroke-linejoin: miter; stroke-miterlimit: 10; fill: rgb(46,120,217); fill-rule: nonzero; opacity: 1;" transform=" matrix(1 0 0 1 0 0) " stroke-linecap="round" />
	<rect x="34.42" y="70.61" rx="0" ry="0" width="21.16" height="5.76" style="stroke: none; stroke-width: 1; stroke-dasharray: none; stroke-linecap: butt; stroke-linejoin: miter; stroke-miterlimit: 10; fill: rgb(255,255,255); fill-rule: nonzero; opacity: 1;" transform=" matrix(1 0 0 1 0 0) "/>
	<path d="M 81.486 26.434 H 63.25 v 3.501 c 0 17.871 -9.125 24.526 -18.25 28.717 c -9.125 -4.191 -18.25 -10.846 -18.25 -28.717 v -3.501 H 8.514 c -1.547 0 -2.8 1.254 -2.8 2.8 v 41.371 h 78.572 V 29.235 C 84.286 27.688 83.032 26.434 81.486 26.434 z" style="stroke: none; stroke-width: 1; stroke-dasharray: none; stroke-linecap: butt; stroke-linejoin: miter; stroke-miterlimit: 10; fill: rgb(85,109,139); fill-rule: nonzero; opacity: 1;" transform=" matrix(1 0 0 1 0 0) " stroke-linecap="round" />
	<path d="M 45 39.09 c -0.13 0 -0.26 -0.02 -0.38 -0.08 c -0.13 -0.05 -0.23 -0.12 -0.33 -0.21 C 44.11 38.61 44 38.35 44 38.09 c 0 -0.26 0.11 -0.52 0.29 -0.71 c 0.1 -0.09 0.2 -0.16 0.33 -0.21 c 0.37 -0.15 0.81 -0.06 1.09 0.21 c 0.09 0.1 0.16 0.2 0.21 0.33 c 0.06 0.12 0.08 0.25 0.08 0.38 c 0 0.27 -0.11 0.52 -0.29 0.71 c -0.05 0.04 -0.1 0.09 -0.15 0.12 c -0.06 0.04 -0.12 0.07 -0.18 0.09 c -0.06 0.03 -0.12 0.05 -0.18 0.06 C 45.13 39.08 45.06 39.09 45 39.09 z" style="stroke: none; stroke-width: 1; stroke-dasharray: none; stroke-linecap: butt; stroke-linejoin: miter; stroke-miterlimit: 10; fill: rgb(46,120,217); fill-rule: nonzero; opacity: 1;" transform=" matrix(1 0 0 1 0 0) " stroke-linecap="round" />
	<path d="M 49.066 33.664 c -0.553 0 -1 -0.448 -1 -1 v -6.2 c 0 -1.691 -1.376 -3.067 -3.066 -3.067 c -1.691 0 -3.067 1.376 -3.067 3.067 v 6.2 c 0 0.552 -0.448 1 -1 1 s -1 -0.448 -1 -1 v -6.2 c 0 -2.794 2.273 -5.067 5.067 -5.067 s 5.066 2.273 5.066 5.067 v 6.2 C 50.066 33.216 49.619 33.664 49.066 33.664 z" style="stroke: none; stroke-width: 1; stroke-dasharray: none; stroke-linecap: butt; stroke-linejoin: miter; stroke-miterlimit: 10; fill: rgb(255,255,255); fill-rule: nonzero; opacity: 1;" transform=" matrix(1 0 0 1 0 0) " stroke-linecap="round" />
</g>
</svg>