<svg xmlns="http://www.w3.org/2000/svg" xmlns:xlink="http://www.w3.org/1999/xlink" version="1.1" width="256" height="256" viewBox="0 0 256 256" xml:space="preserve">

<defs>
</defs>
<g style="stroke: none; stroke-width: 0; stroke-dasharray: none; stroke-linecap: butt; stroke-linejoin: miter; stroke-miterlimit: 10; fill: none; fill-rule: nonzero; opacity: 1;" transform="translate(1.4065934065934016 1.4065934065934016) scale(2.81 2.81)" >
	<path d="M 7.439 70.362 c -0.242 0 -0.485 -0.088 -0.677 -0.265 c -0.406 -0.374 -0.432 -1.007 -0.058 -1.413 l 6.501 -7.053 c 0.189 -0.205 0.456 -0.322 0.735 -0.322 h 13.114 c 0.552 0 1 0.447 1 1 s -0.448 1 -1 1 H 14.379 l -6.204 6.73 C 7.978 70.254 7.709 70.362 7.439 70.362 z" style="stroke: none; stroke-width: 1; stroke-dasharray: none; stroke-linecap: butt; stroke-linejoin: miter; stroke-miterlimit: 10; fill: rgb(188,203,206); fill-rule: nonzero; opacity: 1;" transform=" matrix(1 0 0 1 0 0) " stroke-linecap="round" />
	<path d="M 82.561 70.362 c -0.27 0 -0.538 -0.108 -0.735 -0.322 l -6.205 -6.73 H 62.944 c -0.553 0 -1 -0.447 -1 -1 s 0.447 -1 1 -1 h 13.114 c 0.279 0 0.546 0.117 0.735 0.322 l 6.502 7.053 c 0.374 0.406 0.349 1.039 -0.058 1.413 C 83.046 70.274 82.803 70.362 82.561 70.362 z" style="stroke: none; stroke-width: 1; stroke-dasharray: none; stroke-linecap: butt; stroke-linejoin: miter; stroke-miterlimit: 10; fill: rgb(188,203,206); fill-rule: nonzero; opacity: 1;" transform=" matrix(1 0 0 1 0 0) " stroke-linecap="round" />
	<path d="M 21.955 31.741 h -8.014 c -0.279 0 -0.546 -0.117 -0.735 -0.322 l -6.501 -7.052 c -0.374 -0.406 -0.349 -1.039 0.058 -1.413 c 0.407 -0.376 1.038 -0.348 1.413 0.058 l 6.204 6.73 h 7.576 c 0.552 0 1 0.448 1 1 S 22.507 31.741 21.955 31.741 z" style="stroke: none; stroke-width: 1; stroke-dasharray: none; stroke-linecap: butt; stroke-linejoin: miter; stroke-miterlimit: 10; fill: rgb(188,203,206); fill-rule: nonzero; opacity: 1;" transform=" matrix(1 0 0 1 0 0) " stroke-linecap="round" />
	<path d="M 76.059 31.741 h -8.014 c -0.553 0 -1 -0.448 -1 -1 s 0.447 -1 1 -1 h 7.575 l 6.205 -6.73 c 0.375 -0.405 1.007 -0.432 1.413 -0.058 c 0.406 0.375 0.432 1.007 0.058 1.413 l -6.502 7.052 C 76.604 31.624 76.338 31.741 76.059 31.741 z" style="stroke: none; stroke-width: 1; stroke-dasharray: none; stroke-linecap: butt; stroke-linejoin: miter; stroke-miterlimit: 10; fill: rgb(188,203,206); fill-rule: nonzero; opacity: 1;" transform=" matrix(1 0 0 1 0 0) " stroke-linecap="round" />
	<path d="M 81.127 47.525 H 67.774 c -0.553 0 -1 -0.447 -1 -1 c 0 -0.552 0.447 -1 1 -1 h 13.353 c 0.553 0 1 0.448 1 1 C 82.127 47.078 81.68 47.525 81.127 47.525 z" style="stroke: none; stroke-width: 1; stroke-dasharray: none; stroke-linecap: butt; stroke-linejoin: miter; stroke-miterlimit: 10; fill: rgb(188,203,206); fill-rule: nonzero; opacity: 1;" transform=" matrix(1 0 0 1 0 0) " stroke-linecap="round" />
	<path d="M 22.225 47.525 H 7.633 c -0.552 0 -1 -0.447 -1 -1 c 0 -0.552 0.448 -1 1 -1 h 14.592 c 0.552 0 1 0.448 1 1 C 23.225 47.078 22.777 47.525 22.225 47.525 z" style="stroke: none; stroke-width: 1; stroke-dasharray: none; stroke-linecap: butt; stroke-linejoin: miter; stroke-miterlimit: 10; fill: rgb(188,203,206); fill-rule: nonzero; opacity: 1;" transform=" matrix(1 0 0 1 0 0) " stroke-linecap="round" />
	<path d="M 45 77.057 c 11.522 -5.292 23.045 -13.695 23.045 -36.261 V 24.267 C 60.363 23.891 52.682 20.116 45 12.943 c -7.682 7.173 -15.363 10.947 -23.045 11.324 v 16.529 C 21.955 63.361 33.478 71.765 45 77.057 L 45 77.057 z" style="stroke: none; stroke-width: 1; stroke-dasharray: none; stroke-linecap: butt; stroke-linejoin: miter; stroke-miterlimit: 10; fill: rgb(46,120,217); fill-rule: nonzero; opacity: 1;" transform=" matrix(1 0 0 1 0 0) " stroke-linecap="round" />
	<circle cx="4.436" cy="72.61600000000001" r="4.436" style="stroke: none; stroke-width: 1; stroke-dasharray: none; stroke-linecap: butt; stroke-linejoin: miter; stroke-miterlimit: 10; fill: rgb(46,120,217); fill-rule: nonzero; opacity: 1;" transform="  matrix(1 0 0 1 0 0) "/>
	<circle cx="85.566" cy="72.61600000000001" r="4.436" style="stroke: none; stroke-width: 1; stroke-dasharray: none; stroke-linecap: butt; stroke-linejoin: miter; stroke-miterlimit: 10; fill: rgb(46,120,217); fill-rule: nonzero; opacity: 1;" transform="  matrix(1 0 0 1 0 0) "/>
	<circle cx="4.436" cy="20.426000000000002" r="4.436" style="stroke: none; stroke-width: 1; stroke-dasharray: none; stroke-linecap: butt; stroke-linejoin: miter; stroke-miterlimit: 10; fill: rgb(46,120,217); fill-rule: nonzero; opacity: 1;" transform="  matrix(1 0 0 1 0 0) "/>
	<circle cx="85.566" cy="20.426000000000002" r="4.436" style="stroke: none; stroke-width: 1; stroke-dasharray: none; stroke-linecap: butt; stroke-linejoin: miter; stroke-miterlimit: 10; fill: rgb(46,120,217); fill-rule: nonzero; opacity: 1;" transform="  matrix(1 0 0 1 0 0) "/>
	<circle cx="85.566" cy="46.526" r="4.436" style="stroke: none; stroke-width: 1; stroke-dasharray: none; stroke-linecap: butt; stroke-linejoin: miter; stroke-miterlimit: 10; fill: rgb(46,120,217); fill-rule: nonzero; opacity: 1;" transform="  matrix(1 0 0 1 0 0) "/>
	<circle cx="4.436" cy="46.526" r="4.436" style="stroke: none; stroke-width: 1; stroke-dasharray: none; stroke-linecap: butt; stroke-linejoin: miter; stroke-miterlimit: 10; fill: rgb(46,120,217); fill-rule: nonzero; opacity: 1;" transform="  matrix(1 0 0 1 0 0) "/>
	<path d="M 36.323 37.098 c -0.437 -0.338 -1.064 -0.259 -1.403 0.178 l -5.512 7.112 c -0.279 0.361 -0.279 0.865 0 1.226 l 5.512 7.111 c 0.197 0.255 0.493 0.388 0.791 0.388 c 0.214 0 0.43 -0.068 0.612 -0.21 c 0.437 -0.338 0.516 -0.966 0.178 -1.402 L 31.463 45 l 5.037 -6.499 C 36.839 38.064 36.759 37.436 36.323 37.098 z" style="stroke: none; stroke-width: 1; stroke-dasharray: none; stroke-linecap: butt; stroke-linejoin: miter; stroke-miterlimit: 10; fill: rgb(255,255,255); fill-rule: nonzero; opacity: 1;" transform=" matrix(1 0 0 1 0 0) " stroke-linecap="round" />
	<path d="M 60.773 45.189 c 0.012 -0.063 0.013 -0.125 0.013 -0.189 s 0 -0.126 -0.013 -0.189 c -0.012 -0.061 -0.035 -0.117 -0.058 -0.176 c -0.025 -0.064 -0.052 -0.124 -0.09 -0.182 c -0.014 -0.021 -0.017 -0.046 -0.033 -0.066 l -5.512 -7.112 c -0.337 -0.435 -0.967 -0.516 -1.402 -0.178 c -0.437 0.338 -0.517 0.967 -0.178 1.403 L 58.537 45 L 53.5 51.499 c -0.339 0.437 -0.259 1.064 0.178 1.402 c 0.182 0.142 0.397 0.21 0.611 0.21 c 0.299 0 0.595 -0.133 0.791 -0.388 l 5.512 -7.111 c 0.016 -0.02 0.019 -0.045 0.033 -0.066 c 0.039 -0.058 0.065 -0.118 0.09 -0.182 C 60.738 45.306 60.761 45.25 60.773 45.189 z" style="stroke: none; stroke-width: 1; stroke-dasharray: none; stroke-linecap: butt; stroke-linejoin: miter; stroke-miterlimit: 10; fill: rgb(255,255,255); fill-rule: nonzero; opacity: 1;" transform=" matrix(1 0 0 1 0 0) " stroke-linecap="round" />
	<path d="M 48.945 34.978 c -0.512 -0.202 -1.094 0.05 -1.297 0.564 L 40.49 53.725 c -0.202 0.514 0.05 1.095 0.564 1.297 c 0.12 0.047 0.244 0.069 0.366 0.069 c 0.399 0 0.776 -0.24 0.931 -0.634 l 7.159 -18.182 C 49.712 35.761 49.459 35.181 48.945 34.978 z" style="stroke: none; stroke-width: 1; stroke-dasharray: none; stroke-linecap: butt; stroke-linejoin: miter; stroke-miterlimit: 10; fill: rgb(255,255,255); fill-rule: nonzero; opacity: 1;" transform=" matrix(1 0 0 1 0 0) " stroke-linecap="round" />
</g>
</svg>