<svg xmlns="http://www.w3.org/2000/svg" fill="none" viewBox="0 0 40 40" id="Heart--Streamline-Core.svg" height="40" width="40"><desc>Heart Streamline Icon: https://streamlinehq.com</desc><g id="heart--reward-social-rating-media-heart-it-like-favorite-love"><path id="Union" fill="#000000" fill-rule="evenodd" d="M11.496571428571428 3.1003428571428575c2.8015142857142856 0.203 5.720685714285715 1.568657142857143 8.515085714285714 4.332571428571429 2.7936857142857145 -2.763142857142857 5.710285714285714 -4.1262 8.5092 -4.324685714285715 3.158857142857143 -0.2240285714285714 5.951428571428572 1.0526857142857142 7.972 3.067 3.9722857142857144 3.9604 5.219714285714286 11.126742857142856 0.2905714285714286 16.056 -0.01657142857142857 0.016628571428571427 -0.03371428571428572 0.032857142857142856 -0.05114285714285714 0.04862857142857143L20.970685714285715 36.55685714285715c-0.5443142857142858 0.4928571428571428 -1.3737714285714286 0.4928571428571428 -1.9180857142857142 0L3.290942857142857 22.279857142857143c-0.01742857142857143 -0.01577142857142857 -0.03445714285714286 -0.032 -0.05108571428571429 -0.04862857142857143 -4.954942857142857 -4.954942857142857 -3.714165714285714 -12.122114285714288 0.27125714285714286 -16.079428571428572 2.0254000000000003 -2.011142857142857 4.823657142857143 -3.280542857142857 7.985457142857142 -3.0514571428571426Z" clip-rule="evenodd" stroke-width="1"></path></g></svg>