<svg xmlns="http://www.w3.org/2000/svg" xmlns:xlink="http://www.w3.org/1999/xlink" version="1.1" width="256" height="256" viewBox="0 0 256 256" xml:space="preserve">

<defs>
</defs>
<g style="stroke: none; stroke-width: 0; stroke-dasharray: none; stroke-linecap: butt; stroke-linejoin: miter; stroke-miterlimit: 10; fill: none; fill-rule: nonzero; opacity: 1;" transform="translate(1.4065934065934016 1.4065934065934016) scale(2.81 2.81)" >
	<circle cx="45" cy="45" r="45" style="stroke: none; stroke-width: 1; stroke-dasharray: none; stroke-linecap: butt; stroke-linejoin: miter; stroke-miterlimit: 10; fill: rgb(46,120,217); fill-rule: nonzero; opacity: 1;" transform="  matrix(1 0 0 1 0 0) "/>
	<path d="M 31.756 60.392 c -8.487 0 -15.391 -6.904 -15.391 -15.392 c 0 -8.487 6.904 -15.391 15.391 -15.391 S 47.146 36.513 47.146 45 C 47.146 53.487 40.243 60.392 31.756 60.392 z M 31.756 35.609 c -5.178 0 -9.391 4.213 -9.391 9.391 c 0 5.179 4.213 9.392 9.391 9.392 s 9.391 -4.213 9.391 -9.392 C 41.147 39.822 36.934 35.609 31.756 35.609 z" style="stroke: none; stroke-width: 1; stroke-dasharray: none; stroke-linecap: butt; stroke-linejoin: miter; stroke-miterlimit: 10; fill: rgb(255,255,255); fill-rule: nonzero; opacity: 1;" transform=" matrix(1 0 0 1 0 0) " stroke-linecap="round" />
	<path d="M 70.636 48 H 44.147 c -1.657 0 -3 -1.343 -3 -3 c 0 -1.657 1.343 -3 3 -3 h 26.489 c 1.657 0 3 1.343 3 3 C 73.636 46.657 72.293 48 70.636 48 z" style="stroke: none; stroke-width: 1; stroke-dasharray: none; stroke-linecap: butt; stroke-linejoin: miter; stroke-miterlimit: 10; fill: rgb(255,255,255); fill-rule: nonzero; opacity: 1;" transform=" matrix(1 0 0 1 0 0) " stroke-linecap="round" />
	<path d="M 59.599 55.517 c -1.657 0 -3 -1.343 -3 -3 V 45 c 0 -1.657 1.343 -3 3 -3 s 3 1.343 3 3 v 7.517 C 62.599 54.174 61.256 55.517 59.599 55.517 z" style="stroke: none; stroke-width: 1; stroke-dasharray: none; stroke-linecap: butt; stroke-linejoin: miter; stroke-miterlimit: 10; fill: rgb(255,255,255); fill-rule: nonzero; opacity: 1;" transform=" matrix(1 0 0 1 0 0) " stroke-linecap="round" />
	<path d="M 70.636 55.517 c -1.657 0 -3 -1.343 -3 -3 V 45 c 0 -1.657 1.343 -3 3 -3 s 3 1.343 3 3 v 7.517 C 73.636 54.174 72.293 55.517 70.636 55.517 z" style="stroke: none; stroke-width: 1; stroke-dasharray: none; stroke-linecap: butt; stroke-linejoin: miter; stroke-miterlimit: 10; fill: rgb(255,255,255); fill-rule: nonzero; opacity: 1;" transform=" matrix(1 0 0 1 0 0) " stroke-linecap="round" />
</g>
</svg>