<svg xmlns="http://www.w3.org/2000/svg" xmlns:xlink="http://www.w3.org/1999/xlink" version="1.1" width="256" height="256" viewBox="0 0 256 256" xml:space="preserve">

<defs>
</defs>
<g style="stroke: none; stroke-width: 0; stroke-dasharray: none; stroke-linecap: butt; stroke-linejoin: miter; stroke-miterlimit: 10; fill: none; fill-rule: nonzero; opacity: 1;" transform="translate(1.4065934065934016 1.4065934065934016) scale(2.81 2.81)" >
	<path d="M 90 90 H 77.615 c -21.744 -5.296 -43.487 -5.296 -65.231 0 H 0 V 0 h 90 V 90 z" style="stroke: none; stroke-width: 1; stroke-dasharray: none; stroke-linecap: butt; stroke-linejoin: miter; stroke-miterlimit: 10; fill: rgb(247,247,247); fill-rule: nonzero; opacity: 1;" transform=" matrix(1 0 0 1 0 0) " stroke-linecap="round" />
	<path d="M 67.319 68.576 l -4.863 -2.716 c -3.576 -1.997 -6.386 -4.994 -8.161 -8.53 c 2.468 -3.578 4.072 -8.116 4.271 -11.885 h 0.022 l 1.346 -6.015 c 0.298 -1.332 -0.306 -2.604 -1.346 -3.293 v -2.179 c 0 -6.227 -4.193 -13.335 -9.906 -15.582 l 0.009 -0.015 c -2.81 -1.268 -6.633 -1.184 -8.423 -0.718 c 1.849 0.664 2.835 2.557 0.425 3.426 l 0.022 0.001 c -5.402 1.796 -9.302 6.882 -9.302 12.887 v 2.179 c -1.041 0.689 -1.644 1.96 -1.346 3.293 l 1.346 6.015 h 0.022 c 0.199 3.769 1.802 8.307 4.271 11.885 c -1.775 3.536 -4.586 6.533 -8.161 8.53 l -4.863 2.716 c -6.357 3.55 -10.296 10.262 -10.296 17.543 V 90 h 65.231 v -3.881 C 77.615 78.838 73.676 72.126 67.319 68.576 z" style="stroke: none; stroke-width: 1; stroke-dasharray: none; stroke-linecap: butt; stroke-linejoin: miter; stroke-miterlimit: 10; fill: rgb(200,209,230); fill-rule: nonzero; opacity: 1;" transform=" matrix(1 0 0 1 0 0) " stroke-linecap="round" />
</g>
</svg>