<svg xmlns="http://www.w3.org/2000/svg" xmlns:xlink="http://www.w3.org/1999/xlink" version="1.1" width="256" height="256" viewBox="0 0 256 256" xml:space="preserve">

<defs>
</defs>
<g style="stroke: none; stroke-width: 0; stroke-dasharray: none; stroke-linecap: butt; stroke-linejoin: miter; stroke-miterlimit: 10; fill: none; fill-rule: nonzero; opacity: 1;" transform="translate(1.4065934065934016 1.4065934065934016) scale(2.81 2.81)" >
	<path d="M 70.167 90 H 19.833 c -4.591 0 -8.326 -3.735 -8.326 -8.326 V 43.297 c 0 -3.843 2.611 -7.173 6.349 -8.098 c 18.013 -4.459 36.278 -4.459 54.289 0 c 3.738 0.925 6.349 4.255 6.349 8.098 v 38.376 C 78.493 86.265 74.758 90 70.167 90 z M 45 37.857 c -8.587 0 -17.175 1.056 -25.702 3.167 c -1.055 0.261 -1.791 1.196 -1.791 2.273 v 38.376 c 0 1.282 1.043 2.326 2.326 2.326 h 50.334 c 1.282 0 2.326 -1.044 2.326 -2.326 V 43.297 c 0 -1.078 -0.736 -2.013 -1.79 -2.273 C 62.176 38.913 53.588 37.857 45 37.857 z" style="stroke: none; stroke-width: 1; stroke-dasharray: none; stroke-linecap: butt; stroke-linejoin: miter; stroke-miterlimit: 10; fill: rgb(255,255,255); fill-rule: nonzero; opacity: 1;" transform=" matrix(1 0 0 1 0 0) " stroke-linecap="round" />
	<path d="M 66.781 40.067 c -1.657 0 -3 -1.343 -3 -3 V 24.781 C 63.781 14.425 55.356 6 45 6 c -10.356 0 -18.781 8.425 -18.781 18.781 v 12.286 c 0 1.657 -1.343 3 -3 3 s -3 -1.343 -3 -3 V 24.781 C 20.219 11.117 31.336 0 45 0 s 24.781 11.117 24.781 24.781 v 12.286 C 69.781 38.724 68.438 40.067 66.781 40.067 z" style="stroke: none; stroke-width: 1; stroke-dasharray: none; stroke-linecap: butt; stroke-linejoin: miter; stroke-miterlimit: 10; fill: rgb(255,255,255); fill-rule: nonzero; opacity: 1;" transform=" matrix(1 0 0 1 0 0) " stroke-linecap="round" />
	<path d="M 45 65.8 c -4.869 0 -8.83 -3.962 -8.83 -8.831 s 3.961 -8.83 8.83 -8.83 s 8.83 3.961 8.83 8.83 S 49.869 65.8 45 65.8 z M 45 54.139 c -1.561 0 -2.83 1.27 -2.83 2.83 c 0 1.562 1.27 2.831 2.83 2.831 s 2.83 -1.27 2.83 -2.831 C 47.83 55.408 46.561 54.139 45 54.139 z" style="stroke: none; stroke-width: 1; stroke-dasharray: none; stroke-linecap: butt; stroke-linejoin: miter; stroke-miterlimit: 10; fill: rgb(255,255,255); fill-rule: nonzero; opacity: 1;" transform=" matrix(1 0 0 1 0 0) " stroke-linecap="round" />
	<path d="M 45 73.69 c -1.657 0 -3 -1.343 -3 -3 V 62.8 c 0 -1.657 1.343 -3 3 -3 c 1.657 0 3 1.343 3 3 v 7.891 C 48 72.348 46.657 73.69 45 73.69 z" style="stroke: none; stroke-width: 1; stroke-dasharray: none; stroke-linecap: butt; stroke-linejoin: miter; stroke-miterlimit: 10; fill: rgb(255,255,255); fill-rule: nonzero; opacity: 1;" transform=" matrix(1 0 0 1 0 0) " stroke-linecap="round" />
</g>
</svg>