<svg xmlns="http://www.w3.org/2000/svg" xmlns:xlink="http://www.w3.org/1999/xlink" version="1.1" width="256" height="256" viewBox="0 0 256 256" xml:space="preserve">

<defs>
</defs>
<g style="stroke: none; stroke-width: 0; stroke-dasharray: none; stroke-linecap: butt; stroke-linejoin: miter; stroke-miterlimit: 10; fill: none; fill-rule: nonzero; opacity: 1;" transform="translate(1.4065934065934016 1.4065934065934016) scale(2.81 2.81)" >
	<path d="M 73.274 66.511 h 8.465 c 4.167 0 7.546 -3.378 7.546 -7.546 V 15.432 c 0 -4.167 -3.378 -7.546 -7.546 -7.546 h -65.59 c -4.167 0 -7.546 3.378 -7.546 7.546 v 43.534 c 0 4.167 3.378 7.546 7.546 7.546 h 8.465 H 73.274 z" style="stroke: none; stroke-width: 1; stroke-dasharray: none; stroke-linecap: butt; stroke-linejoin: miter; stroke-miterlimit: 10; fill: rgb(46,120,217); fill-rule: nonzero; opacity: 1;" transform=" matrix(1 0 0 1 0 0) " stroke-linecap="round" />
	<path d="M 48.943 90 c -0.769 0 -1.392 -0.623 -1.392 -1.392 V 54.644 c 0 -0.768 0.623 -1.392 1.392 -1.392 c 0.769 0 1.392 0.623 1.392 1.392 v 33.965 C 50.335 89.377 49.712 90 48.943 90 z" style="stroke: none; stroke-width: 1; stroke-dasharray: none; stroke-linecap: butt; stroke-linejoin: miter; stroke-miterlimit: 10; fill: rgb(46,120,217); fill-rule: nonzero; opacity: 1;" transform=" matrix(1 0 0 1 0 0) " stroke-linecap="round" />
	<path d="M 61.827 83.558 c -0.768 0 -1.392 -0.623 -1.392 -1.392 V 59.797 c 0 -0.768 0.623 -1.392 1.392 -1.392 c 0.768 0 1.392 0.623 1.392 1.392 v 22.369 C 63.219 82.934 62.595 83.558 61.827 83.558 z" style="stroke: none; stroke-width: 1; stroke-dasharray: none; stroke-linecap: butt; stroke-linejoin: miter; stroke-miterlimit: 10; fill: rgb(46,120,217); fill-rule: nonzero; opacity: 1;" transform=" matrix(1 0 0 1 0 0) " stroke-linecap="round" />
	<path d="M 36.059 83.558 c -0.769 0 -1.392 -0.623 -1.392 -1.392 V 59.797 c 0 -0.768 0.623 -1.392 1.392 -1.392 c 0.769 0 1.392 0.623 1.392 1.392 v 22.369 C 37.451 82.934 36.828 83.558 36.059 83.558 z" style="stroke: none; stroke-width: 1; stroke-dasharray: none; stroke-linecap: butt; stroke-linejoin: miter; stroke-miterlimit: 10; fill: rgb(46,120,217); fill-rule: nonzero; opacity: 1;" transform=" matrix(1 0 0 1 0 0) " stroke-linecap="round" />
	<path d="M 42.449 39.793 c -0.338 0 -0.675 -0.122 -0.941 -0.366 L 11.889 12.254 c -0.566 -0.52 -0.604 -1.4 -0.085 -1.967 c 0.521 -0.566 1.401 -0.604 1.967 -0.085 l 28.678 26.31 l 28.679 -26.31 c 0.567 -0.518 1.446 -0.481 1.966 0.085 c 0.519 0.566 0.481 1.447 -0.085 1.967 L 43.389 39.427 C 43.123 39.671 42.786 39.793 42.449 39.793 z" style="stroke: none; stroke-width: 1; stroke-dasharray: none; stroke-linecap: butt; stroke-linejoin: miter; stroke-miterlimit: 10; fill: rgb(255,255,255); fill-rule: nonzero; opacity: 1;" transform=" matrix(1 0 0 1 0 0) " stroke-linecap="round" />
	<path d="M 12.83 51.572 c -0.376 0 -0.752 -0.151 -1.026 -0.451 c -0.52 -0.566 -0.482 -1.446 0.085 -1.966 l 21.229 -19.476 c 0.566 -0.521 1.446 -0.482 1.967 0.085 c 0.52 0.566 0.482 1.447 -0.085 1.967 L 13.771 51.206 C 13.504 51.45 13.166 51.572 12.83 51.572 z" style="stroke: none; stroke-width: 1; stroke-dasharray: none; stroke-linecap: butt; stroke-linejoin: miter; stroke-miterlimit: 10; fill: rgb(255,255,255); fill-rule: nonzero; opacity: 1;" transform=" matrix(1 0 0 1 0 0) " stroke-linecap="round" />
	<path d="M 72.068 51.572 c -0.336 0 -0.673 -0.121 -0.941 -0.366 L 49.897 31.73 c -0.566 -0.52 -0.604 -1.4 -0.085 -1.967 c 0.52 -0.566 1.4 -0.604 1.966 -0.085 l 21.23 19.476 c 0.566 0.52 0.604 1.4 0.085 1.966 C 72.819 51.421 72.444 51.572 72.068 51.572 z" style="stroke: none; stroke-width: 1; stroke-dasharray: none; stroke-linecap: butt; stroke-linejoin: miter; stroke-miterlimit: 10; fill: rgb(255,255,255); fill-rule: nonzero; opacity: 1;" transform=" matrix(1 0 0 1 0 0) " stroke-linecap="round" />
	<path d="M 42.449 83.505 c -0.769 0 -1.392 -0.623 -1.392 -1.392 V 48.149 c 0 -0.768 0.623 -1.392 1.392 -1.392 c 0.769 0 1.392 0.623 1.392 1.392 v 33.965 C 43.84 82.882 43.217 83.505 42.449 83.505 z" style="stroke: none; stroke-width: 1; stroke-dasharray: none; stroke-linecap: butt; stroke-linejoin: miter; stroke-miterlimit: 10; fill: rgb(255,255,255); fill-rule: nonzero; opacity: 1;" transform=" matrix(1 0 0 1 0 0) " stroke-linecap="round" />
	<path d="M 55.332 77.063 c -0.768 0 -1.392 -0.623 -1.392 -1.392 V 53.302 c 0 -0.768 0.623 -1.392 1.392 -1.392 s 1.392 0.623 1.392 1.392 v 22.369 C 56.724 76.439 56.101 77.063 55.332 77.063 z" style="stroke: none; stroke-width: 1; stroke-dasharray: none; stroke-linecap: butt; stroke-linejoin: miter; stroke-miterlimit: 10; fill: rgb(255,255,255); fill-rule: nonzero; opacity: 1;" transform=" matrix(1 0 0 1 0 0) " stroke-linecap="round" />
	<path d="M 29.564 77.063 c -0.769 0 -1.392 -0.623 -1.392 -1.392 V 53.302 c 0 -0.768 0.623 -1.392 1.392 -1.392 s 1.392 0.623 1.392 1.392 v 22.369 C 30.956 76.439 30.333 77.063 29.564 77.063 z" style="stroke: none; stroke-width: 1; stroke-dasharray: none; stroke-linecap: butt; stroke-linejoin: miter; stroke-miterlimit: 10; fill: rgb(255,255,255); fill-rule: nonzero; opacity: 1;" transform=" matrix(1 0 0 1 0 0) " stroke-linecap="round" />
	<path d="M 75.244 61.408 h -8.465 c -0.768 0 -1.392 -0.623 -1.392 -1.392 c 0 -0.768 0.623 -1.392 1.392 -1.392 h 8.465 c 3.393 0 6.154 -2.761 6.154 -6.154 V 8.937 c 0 -3.393 -2.761 -6.154 -6.154 -6.154 H 9.654 c -3.393 0 -6.154 2.76 -6.154 6.154 v 43.533 c 0 3.393 2.761 6.154 6.154 6.154 h 8.465 c 0.769 0 1.392 0.623 1.392 1.392 c 0 0.768 -0.623 1.392 -1.392 1.392 H 9.654 c -4.928 0 -8.938 -4.009 -8.938 -8.938 V 8.937 C 0.716 4.009 4.725 0 9.654 0 h 65.59 c 4.928 0 8.938 4.009 8.938 8.937 v 43.533 C 84.181 57.399 80.172 61.408 75.244 61.408 z" style="stroke: none; stroke-width: 1; stroke-dasharray: none; stroke-linecap: butt; stroke-linejoin: miter; stroke-miterlimit: 10; fill: rgb(255,255,255); fill-rule: nonzero; opacity: 1;" transform=" matrix(1 0 0 1 0 0) " stroke-linecap="round" />
</g>
</svg>