<svg xmlns="http://www.w3.org/2000/svg" xmlns:xlink="http://www.w3.org/1999/xlink" version="1.1" width="256" height="256" viewBox="0 0 256 256" xml:space="preserve">

<defs>
</defs>
<g style="stroke: none; stroke-width: 0; stroke-dasharray: none; stroke-linecap: butt; stroke-linejoin: miter; stroke-miterlimit: 10; fill: none; fill-rule: nonzero; opacity: 1;" transform="translate(1.4065934065934016 1.4065934065934016) scale(2.81 2.81)" >
	<path d="M 85.781 8.262 H 4.219 C 1.889 8.262 0 10.15 0 12.48 v 9.806 h 90 V 12.48 C 90 10.15 88.111 8.262 85.781 8.262 z" style="stroke: none; stroke-width: 1; stroke-dasharray: none; stroke-linecap: butt; stroke-linejoin: miter; stroke-miterlimit: 10; fill: rgb(46,120,217); fill-rule: nonzero; opacity: 1;" transform=" matrix(1 0 0 1 0 0) " stroke-linecap="round" />
	<path d="M 0 22.286 V 77.52 c 0 2.33 1.889 4.219 4.219 4.219 h 81.563 c 2.33 0 4.219 -1.889 4.219 -4.219 V 22.286 H 0 z" style="stroke: none; stroke-width: 1; stroke-dasharray: none; stroke-linecap: butt; stroke-linejoin: miter; stroke-miterlimit: 10; fill: rgb(215,227,255); fill-rule: nonzero; opacity: 1;" transform=" matrix(1 0 0 1 0 0) " stroke-linecap="round" />
	<path d="M 71.554 47.051 H 48.519 c -3.938 0 -7.131 -3.193 -7.131 -7.131 v 0 c 0 -3.938 3.193 -7.131 7.131 -7.131 h 23.035 c 3.938 0 7.131 3.193 7.131 7.131 v 0 C 78.684 43.858 75.492 47.051 71.554 47.051 z" style="stroke: none; stroke-width: 1; stroke-dasharray: none; stroke-linecap: butt; stroke-linejoin: miter; stroke-miterlimit: 10; fill: rgb(255,255,255); fill-rule: nonzero; opacity: 1;" transform=" matrix(1 0 0 1 0 0) " stroke-linecap="round" />
	<path d="M 71.554 70.295 H 48.519 c -3.938 0 -7.131 -3.193 -7.131 -7.131 v 0 c 0 -3.938 3.193 -7.131 7.131 -7.131 h 23.035 c 3.938 0 7.131 3.193 7.131 7.131 v 0 C 78.684 67.102 75.492 70.295 71.554 70.295 z" style="stroke: none; stroke-width: 1; stroke-dasharray: none; stroke-linecap: butt; stroke-linejoin: miter; stroke-miterlimit: 10; fill: rgb(255,255,255); fill-rule: nonzero; opacity: 1;" transform=" matrix(1 0 0 1 0 0) " stroke-linecap="round" />
	<path d="M 54.544 16.274 H 9.332 c -0.552 0 -1 -0.448 -1 -1 s 0.448 -1 1 -1 h 45.212 c 0.553 0 1 0.448 1 1 S 55.097 16.274 54.544 16.274 z" style="stroke: none; stroke-width: 1; stroke-dasharray: none; stroke-linecap: butt; stroke-linejoin: miter; stroke-miterlimit: 10; fill: rgb(215,227,255); fill-rule: nonzero; opacity: 1;" transform=" matrix(1 0 0 1 0 0) " stroke-linecap="round" />
	<path d="M 80.112 16.274 H 75.81 c -0.553 0 -1 -0.448 -1 -1 s 0.447 -1 1 -1 h 4.303 c 0.553 0 1 0.448 1 1 S 80.665 16.274 80.112 16.274 z" style="stroke: none; stroke-width: 1; stroke-dasharray: none; stroke-linecap: butt; stroke-linejoin: miter; stroke-miterlimit: 10; fill: rgb(215,227,255); fill-rule: nonzero; opacity: 1;" transform=" matrix(1 0 0 1 0 0) " stroke-linecap="round" />
	<path d="M 22.697 52.186 L 22.697 52.186 c -4.04 0 -7.315 -3.275 -7.315 -7.315 v -4.768 c 0 -4.04 3.275 -7.315 7.315 -7.315 h 0 c 4.04 0 7.315 3.275 7.315 7.315 v 4.768 C 30.012 48.912 26.737 52.186 22.697 52.186 z" style="stroke: none; stroke-width: 1; stroke-dasharray: none; stroke-linecap: butt; stroke-linejoin: miter; stroke-miterlimit: 10; fill: rgb(46,120,217); fill-rule: nonzero; opacity: 1;" transform=" matrix(1 0 0 1 0 0) " stroke-linecap="round" />
	<path d="M 33.659 70.295 v -7.146 c 0 -6.054 -4.908 -10.962 -10.962 -10.962 h 0 c -6.054 0 -10.962 4.908 -10.962 10.962 v 7.146 H 33.659 z" style="stroke: none; stroke-width: 1; stroke-dasharray: none; stroke-linecap: butt; stroke-linejoin: miter; stroke-miterlimit: 10; fill: rgb(46,120,217); fill-rule: nonzero; opacity: 1;" transform=" matrix(1 0 0 1 0 0) " stroke-linecap="round" />
	<path d="M 65.055 69.183 c -0.256 0 -0.512 -0.098 -0.707 -0.293 l -4.312 -4.312 l -4.312 4.312 c -0.391 0.391 -1.023 0.391 -1.414 0 s -0.391 -1.023 0 -1.414 l 5.019 -5.019 c 0.391 -0.391 1.023 -0.391 1.414 0 l 5.019 5.019 c 0.391 0.391 0.391 1.023 0 1.414 C 65.566 69.085 65.311 69.183 65.055 69.183 z" style="stroke: none; stroke-width: 1; stroke-dasharray: none; stroke-linecap: butt; stroke-linejoin: miter; stroke-miterlimit: 10; fill: rgb(46,120,217); fill-rule: nonzero; opacity: 1;" transform=" matrix(1 0 0 1 0 0) " stroke-linecap="round" />
	<path d="M 60.036 76.393 c -0.553 0 -1 -0.447 -1 -1 V 63.164 c 0 -0.553 0.447 -1 1 -1 s 1 0.447 1 1 v 12.229 C 61.036 75.945 60.589 76.393 60.036 76.393 z" style="stroke: none; stroke-width: 1; stroke-dasharray: none; stroke-linecap: butt; stroke-linejoin: miter; stroke-miterlimit: 10; fill: rgb(46,120,217); fill-rule: nonzero; opacity: 1;" transform=" matrix(1 0 0 1 0 0) " stroke-linecap="round" />
</g>
</svg>