<svg xmlns="http://www.w3.org/2000/svg" xmlns:xlink="http://www.w3.org/1999/xlink" version="1.1" width="256" height="256" viewBox="0 0 256 256" xml:space="preserve">

<defs>
</defs>
<g style="stroke: none; stroke-width: 0; stroke-dasharray: none; stroke-linecap: butt; stroke-linejoin: miter; stroke-miterlimit: 10; fill: none; fill-rule: nonzero; opacity: 1;" transform="translate(1.4065934065934016 1.4065934065934016) scale(2.81 2.81)" >
	<circle cx="45" cy="45" r="45" style="stroke: none; stroke-width: 1; stroke-dasharray: none; stroke-linecap: butt; stroke-linejoin: miter; stroke-miterlimit: 10; fill: rgb(36,84,206); fill-rule: nonzero; opacity: 1;" transform="  matrix(1 0 0 1 0 0) "/>
	<path d="M 61.194 67.5 c 1.072 0 1.94 -0.869 1.94 -1.94 v -3.024 c 0 -6.676 -4.448 -12.361 -10.527 -14.243 c -1.388 -0.43 -2.337 -1.707 -2.337 -3.159 v 0 c 0 -0.889 0.362 -1.736 0.994 -2.36 c 1.638 -1.616 2.657 -3.856 2.657 -6.34 l 0 -4.798 c 0 -4.838 -3.762 -8.958 -8.597 -9.13 c -5.076 -0.18 -9.248 3.881 -9.248 8.917 v 5.012 c 0 2.483 1.019 4.724 2.657 6.34 c 0.633 0.624 0.994 1.471 0.994 2.36 v 0 c 0 1.453 -0.95 2.73 -2.337 3.159 c -6.079 1.882 -10.527 7.567 -10.527 14.243 v 3.024 c 0 1.072 0.869 1.94 1.94 1.94 H 61.194 z" style="stroke: none; stroke-width: 1; stroke-dasharray: none; stroke-linecap: butt; stroke-linejoin: miter; stroke-miterlimit: 10; fill: rgb(255,255,255); fill-rule: nonzero; opacity: 1;" transform=" matrix(1 0 0 1 0 0) " stroke-linecap="round" />
</g>
</svg>